<?xml version="1.0" standalone="no"?>
<!DOCTYPE svg PUBLIC "-//W3C//DTD SVG 20010904//EN"
 "http://www.w3.org/TR/2001/REC-SVG-20010904/DTD/svg10.dtd">
<svg version="1.0" xmlns="http://www.w3.org/2000/svg"
 width="275.000000pt" height="179.000000pt" viewBox="0 0 275.000000 179.000000"
 preserveAspectRatio="xMidYMid meet">
<metadata>
Created by potrace 1.16, written by Peter Selinger 2001-2019
</metadata>
<g transform="translate(0.000000,179.000000) scale(0.100000,-0.100000)"
fill="#000000" stroke="none">
<path d="M406 1775 c-3 -8 -12 -15 -21 -15 -26 0 -107 -42 -112 -59 -3 -9 -9
-25 -13 -36 -12 -29 -24 -68 -25 -85 -1 -8 -11 -35 -22 -60 -11 -25 -26 -66
-32 -92 -6 -26 -24 -69 -40 -95 -16 -26 -39 -77 -51 -113 -12 -35 -27 -74 -33
-85 -7 -11 -13 -56 -14 -100 -2 -108 -11 -173 -29 -213 -14 -30 -14 -36 1 -58
9 -15 15 -40 14 -59 -2 -19 0 -37 4 -41 4 -4 3 -12 -2 -18 -15 -20 -21 -94
-10 -123 6 -15 12 -46 12 -68 2 -32 6 -39 20 -37 19 3 47 -19 47 -37 0 -6 9
-11 20 -11 11 0 20 -4 20 -10 0 -5 6 -7 13 -4 8 3 22 -12 36 -37 l23 -41 -23
7 c-16 5 -21 4 -14 -3 6 -5 23 -12 38 -16 22 -5 27 -4 21 6 -4 7 4 3 17 -8 31
-28 69 -47 69 -36 0 5 -24 26 -54 47 -30 20 -60 50 -66 65 -7 16 -18 31 -25
33 -18 8 -25 55 -9 61 8 3 14 12 14 19 0 9 10 15 25 15 29 0 48 -28 47 -69 0
-15 8 -36 19 -47 10 -12 19 -26 19 -32 0 -5 6 -10 14 -10 7 0 22 -12 32 -26
27 -38 44 -54 55 -54 6 0 -6 19 -25 42 -38 44 -44 66 -23 87 10 10 8 11 -8 6
-13 -5 -16 -4 -8 2 10 7 9 15 -2 37 -16 31 -20 96 -6 96 5 0 12 -25 16 -55 4
-32 15 -64 26 -77 l20 -23 -5 30 c-3 17 -3 24 0 18 3 -7 10 -13 15 -13 6 0 7
4 4 10 -3 5 -4 10 0 10 3 0 14 -20 25 -44 10 -25 28 -54 39 -65 12 -12 18 -21
15 -21 -4 0 -1 -7 6 -15 20 -24 -2 -17 -34 10 -16 14 -30 25 -30 25 -1 0 -1
-10 -2 -22 0 -13 -4 -31 -8 -41 -5 -10 -4 -17 3 -17 6 0 11 6 11 14 0 27 17
26 79 -6 37 -18 61 -37 61 -47 0 -19 79 -27 110 -11 15 8 28 5 57 -13 45 -28
132 -59 144 -51 5 3 6 -1 3 -9 -8 -21 53 -45 69 -27 7 7 7 10 2 7 -6 -3 -19 1
-30 9 -23 17 -6 18 30 2 20 -9 31 -9 45 0 16 9 21 9 29 -5 7 -13 26 -18 83
-21 54 -2 85 -10 121 -29 37 -19 58 -24 85 -19 68 10 142 37 142 49 0 18 60
73 90 82 14 5 64 28 111 51 47 24 90 44 95 44 5 0 35 23 67 50 32 28 66 50 75
50 9 0 38 20 64 43 26 24 63 56 83 71 21 16 34 34 31 42 -7 19 16 59 60 103
30 29 51 40 86 45 25 4 51 13 58 21 6 7 23 16 37 20 27 6 96 59 167 127 22 21
45 38 53 38 14 0 18 16 6 23 -5 2 -2 2 5 0 19 -4 70 40 103 90 29 45 50 115
30 103 -6 -4 -11 -14 -11 -21 0 -16 -34 -38 -44 -28 -3 3 -6 1 -6 -5 0 -7 -4
-12 -10 -12 -12 0 -13 27 -1 32 5 2 35 36 66 76 53 69 57 76 57 130 0 31 7 74
14 96 22 62 19 76 -16 71 -29 -3 -60 15 -60 35 0 5 -13 16 -30 25 -30 15 -30
15 -49 -17 -11 -17 -18 -35 -15 -40 12 -19 -8 -26 -26 -8 -23 23 -25 30 -7 30
7 0 20 9 30 21 17 19 17 22 -4 65 -13 24 -26 44 -30 44 -3 0 -10 10 -14 23 -4
13 -8 17 -12 10 -7 -19 -22 -16 -75 18 -48 31 -60 49 -33 49 8 0 15 5 15 10 0
6 -11 10 -24 10 -13 0 -29 7 -36 15 -7 8 -19 15 -26 15 -8 0 -14 4 -14 9 0 10
-133 24 -218 23 -29 0 -66 3 -81 8 -19 5 -33 4 -40 -3 -6 -6 -44 -14 -85 -18
-40 -4 -91 -16 -112 -27 -21 -11 -63 -23 -91 -27 -45 -6 -53 -4 -53 9 0 9 7
19 15 22 12 5 12 8 0 20 -17 17 -39 18 -68 2 -42 -22 -182 -70 -238 -81 l-57
-10 -18 -59 c-11 -32 -25 -58 -32 -58 -7 0 -32 -8 -55 -19 -23 -10 -49 -21
-57 -24 -11 -4 -10 -6 4 -6 11 -1 17 -3 14 -6 -3 -3 -37 3 -75 14 -74 20 -112
18 -153 -8 -18 -12 -22 -13 -16 -2 7 10 5 12 -4 6 -15 -9 -138 -15 -158 -7 -7
2 -11 11 -8 18 3 8 -4 18 -14 24 -11 6 -20 19 -20 30 0 10 -11 31 -25 46 -14
15 -25 35 -25 44 0 10 -10 25 -22 33 -13 8 -46 38 -74 66 -67 66 -125 89 -138
56z m140 -82 c33 -35 58 -65 56 -68 -9 -8 -33 -6 -28 3 7 11 -25 37 -47 38
-19 2 -19 2 -23 -44 -3 -42 -10 -49 -34 -34 -27 17 -30 15 -30 -13 0 -28 -19
-25 -53 9 -21 21 -24 34 -16 86 4 22 0 25 -25 25 -43 1 -42 19 1 40 21 9 49
23 63 30 36 17 64 2 136 -72z m1483 27 c22 -6 40 -6 53 1 29 15 35 2 10 -20
-12 -10 -22 -21 -22 -25 0 -8 81 -6 104 3 18 7 18 8 3 14 -9 3 -25 4 -34 1
-10 -2 -3 3 15 13 20 10 36 13 40 8 4 -6 27 -12 52 -13 49 -4 120 -38 120 -58
0 -19 94 -84 121 -84 l24 0 -28 -25 c-15 -14 -27 -30 -27 -35 0 -6 -4 -10 -8
-10 -5 0 -7 13 -4 28 6 44 -18 58 -63 36 -20 -9 -42 -25 -48 -36 -9 -13 -24
-18 -55 -18 -43 0 -149 30 -187 52 -11 7 -59 13 -107 14 -61 1 -93 6 -109 18
-13 9 -35 16 -48 16 l-25 0 24 -17 c14 -9 26 -17 26 -17 1 -1 4 -11 8 -22 9
-30 -21 -40 -48 -16 -12 11 -29 22 -38 25 -10 4 -18 13 -18 21 0 8 -9 17 -19
21 -23 7 -71 -4 -71 -16 0 -5 -7 -9 -15 -9 -8 0 -15 -5 -15 -10 0 -6 -6 -10
-12 -9 -28 3 -39 -2 -36 -18 4 -26 -86 -40 -109 -18 -14 15 -14 17 7 22 16 4
18 8 8 14 -9 6 -6 9 10 9 13 0 20 4 17 10 -9 15 -43 12 -70 -6 -14 -9 -31 -14
-39 -11 -10 4 -13 1 -10 -8 4 -10 0 -12 -17 -8 -14 4 -26 0 -34 -11 -7 -9 -29
-18 -49 -20 -20 -2 -39 -6 -43 -10 -3 -3 -15 -6 -25 -6 -11 0 -33 -7 -51 -17
-29 -15 -31 -15 -18 0 7 9 29 19 48 23 19 4 37 14 39 23 3 9 12 29 20 44 7 16
14 34 14 41 0 7 30 17 78 25 73 12 99 21 207 72 47 22 75 18 54 -7 -6 -7 -8
-21 -5 -30 5 -13 15 -15 59 -9 28 4 70 16 91 27 21 11 72 23 112 27 40 4 76
10 80 14 10 9 23 9 63 -3z m-1762 -124 c-3 -8 -2 -16 2 -18 4 -2 11 -16 15
-33 l7 -30 -21 25 c-21 27 -27 70 -9 70 6 0 9 -6 6 -14z m375 -30 c9 -12 18
-25 18 -31 0 -5 7 -23 15 -38 13 -25 13 -31 1 -43 -8 -8 -21 -14 -30 -14 -8 0
-20 -9 -26 -20 -8 -16 -17 -19 -38 -14 -34 8 -32 7 -37 34 -2 12 -9 28 -16 36
-7 9 -7 14 -1 14 23 0 20 31 -6 57 -17 17 -21 25 -9 20 9 -3 17 -3 17 1 0 13
44 28 70 23 13 -2 32 -14 42 -25z m1807 -108 c1 31 19 28 27 -5 4 -16 11 -33
16 -40 10 -13 -7 -83 -21 -83 -16 0 -39 56 -30 72 6 11 6 19 -1 23 -5 3 -10
18 -9 33 l1 27 8 -25 c8 -24 8 -24 9 -2z m-1079 -37 c5 -17 5 -31 1 -31 -9 0
-30 57 -23 64 8 8 11 3 22 -33z m263 -60 c3 -11 2 -22 -1 -25 -9 -10 -41 -7
-62 6 -19 12 -19 13 3 25 32 18 54 16 60 -6z m1087 4 c-7 -8 -16 -15 -21 -15
-5 0 -9 7 -9 15 0 9 9 15 21 15 18 0 19 -2 9 -15z m-496 -47 c15 -10 -5 -62
-25 -66 -24 -4 -32 27 -13 46 12 11 13 17 5 20 -9 3 -9 8 1 19 10 12 13 13 17
2 2 -8 9 -17 15 -21z m-474 2 c-20 -13 -43 -13 -35 0 3 6 16 10 28 10 18 0 19
-2 7 -10z m24 -21 c-3 -6 -1 -15 6 -19 9 -6 7 -11 -9 -19 -14 -8 -21 -8 -21
-1 0 5 -3 9 -7 8 -14 -3 -53 13 -53 22 0 5 17 11 38 13 20 2 41 4 45 5 5 1 5
-3 1 -9z m-1600 -34 c-4 -8 -11 -15 -16 -15 -6 0 -5 6 2 15 7 8 14 15 16 15 2
0 1 -7 -2 -15z m2434 -30 c-6 -14 -20 -25 -30 -25 -31 0 0 46 34 49 4 1 2 -10
-4 -24z m-811 9 c-3 -3 -12 -4 -19 -1 -8 3 -5 6 6 6 11 1 17 -2 13 -5z m746
-34 c-3 -11 -10 -23 -16 -27 -7 -4 -8 0 -4 11 4 10 7 22 7 27 0 5 4 9 9 9 5 0
7 -9 4 -20z m-135 -23 c2 -10 -3 -17 -11 -17 -16 0 -30 24 -19 34 10 10 27 1
30 -17z m-2123 3 c3 -5 -1 -10 -10 -10 -9 0 -13 5 -10 10 3 6 8 10 10 10 2 0
7 -4 10 -10z m32 -25 c-8 -26 -7 -42 2 -61 14 -32 7 -44 -9 -15 -6 12 -15 19
-21 15 -6 -4 -6 -11 2 -20 7 -8 9 -25 4 -41 -3 -16 -8 -53 -9 -83 -2 -55 -31
-130 -52 -137 -32 -10 -23 90 14 167 11 23 17 60 17 108 0 39 4 72 8 72 5 0 6
-4 3 -8 -6 -10 11 -39 18 -31 5 4 13 38 15 62 1 4 5 7 10 7 5 0 4 -15 -2 -35z
m333 19 c0 -12 -6 -15 -22 -10 -13 3 -27 6 -33 6 -5 0 -3 5 5 10 23 15 50 12
50 -6z m1275 7 c3 -5 1 -12 -5 -16 -5 -3 -10 1 -10 9 0 18 6 21 15 7z m265 -6
c-7 -8 -20 -15 -29 -15 -11 1 -8 5 9 15 32 18 35 18 20 0z m-60 -85 c0 -5 -5
-10 -11 -10 -5 0 -7 5 -4 10 3 6 8 10 11 10 2 0 4 -4 4 -10z m-1146 -36 c5
-14 4 -15 -9 -4 -17 14 -19 20 -6 20 5 0 12 -7 15 -16z m-362 -63 c16 -20 39
-52 52 -71 13 -19 51 -57 85 -84 64 -51 80 -71 34 -40 -73 47 -110 78 -128
108 -11 17 -32 47 -47 66 -15 19 -31 49 -37 65 -9 25 -8 27 2 11 6 -10 24 -35
39 -55z m251 49 c26 -8 47 -18 47 -22 0 -13 -14 -9 -71 17 -57 27 -53 28 24 5z
m119 -42 c-7 -7 -12 -8 -12 -2 0 14 12 26 19 19 2 -3 -1 -11 -7 -17z m788 0
c0 -19 -2 -20 -10 -8 -13 19 -13 30 0 30 6 0 10 -10 10 -22z m845 -20 c38 17
42 8 11 -21 -14 -13 -26 -28 -26 -33 0 -5 -9 -15 -19 -21 -17 -11 -21 -9 -26
7 -6 20 -35 28 -35 10 0 -5 -4 -9 -9 -7 -13 3 -62 -64 -55 -75 3 -4 11 -5 17
-1 25 15 -120 -124 -148 -142 -49 -32 -76 -45 -92 -45 -12 0 -13 3 -4 13 9 11
2 16 -30 26 -23 7 -42 11 -43 9 -1 -2 -7 -20 -14 -40 -7 -21 -29 -54 -49 -75
-20 -20 -34 -30 -30 -20 8 22 -20 23 -51 1 -32 -22 -128 -45 -186 -44 -28 1
-78 1 -111 0 -97 -1 -314 16 -323 25 -3 3 6 5 19 6 22 0 22 1 4 9 -12 5 1 6
35 3 47 -4 60 -1 90 19 19 13 40 27 46 31 6 3 27 -2 46 -13 32 -17 46 -18 120
-10 45 5 97 14 113 20 17 7 45 16 64 20 l34 9 -24 -23 c-13 -13 -28 -21 -32
-19 -11 6 -47 -27 -47 -43 0 -7 -6 -15 -12 -17 -7 -3 -1 -6 15 -6 24 -1 32 8
28 32 0 4 2 6 6 5 10 -3 103 44 103 51 0 3 12 7 26 7 32 2 43 12 24 24 -8 5
-12 11 -10 13 93 71 127 87 185 87 22 0 40 9 61 31 16 17 45 40 64 51 19 12
40 26 45 32 6 6 22 18 36 26 58 33 110 71 121 89 11 18 13 18 24 3 10 -14 16
-14 39 -4z m-2563 -40 c-8 -8 -9 -4 -5 13 4 13 8 18 11 10 2 -7 -1 -18 -6 -23z
m265 -45 c-3 -10 -5 -2 -5 17 0 19 2 27 5 18 2 -10 2 -26 0 -35z m1623 -23 c0
-5 -2 -10 -4 -10 -3 0 -8 5 -11 10 -3 6 -1 10 4 10 6 0 11 -4 11 -10z m156
-31 c7 -12 -25 -51 -36 -44 -5 3 -10 -1 -13 -7 -3 -7 -5 -4 -5 7 1 11 -2 27
-6 36 -5 12 0 16 23 17 17 0 33 -4 37 -9z m-1644 -99 c4 9 7 5 7 -12 1 -15 -3
-30 -9 -33 -5 -3 -10 -10 -10 -14 0 -12 36 -51 48 -51 11 0 22 -23 22 -46 0
-8 -6 -14 -14 -14 -12 0 -12 -4 0 -30 9 -16 20 -30 25 -30 5 0 9 -4 9 -10 0
-5 15 -30 32 -55 28 -39 30 -48 18 -56 -13 -9 -13 -10 1 -6 20 6 54 -29 36
-37 -7 -3 3 -3 21 0 25 4 32 2 32 -10 0 -9 -8 -16 -20 -16 -16 0 -18 -4 -10
-24 5 -13 7 -26 4 -28 -2 -3 3 -5 12 -5 11 0 14 7 9 25 -4 17 -2 23 7 19 7 -2
12 -11 10 -19 -4 -24 17 -70 28 -63 6 3 7 -1 4 -9 -4 -10 -1 -16 8 -16 7 0 19
-9 26 -20 7 -12 18 -17 29 -14 17 5 17 5 0 -6 -9 -6 -15 -16 -11 -22 13 -20
-35 12 -69 47 -23 24 -40 33 -55 30 -17 -3 -22 1 -22 16 0 30 -1 32 -45 68
-22 18 -42 35 -44 37 -2 1 12 8 30 13 l34 11 -38 -6 c-28 -4 -37 -2 -32 6 4 6
-1 18 -11 25 -11 8 -15 15 -10 15 4 0 -1 8 -11 18 -25 21 -47 92 -39 120 4 11
2 23 -4 27 -5 3 -10 19 -10 35 0 16 -7 33 -15 37 -22 13 -34 161 -14 174 11 7
16 -2 25 -39 6 -28 13 -41 16 -32z m1578 76 c0 -11 -19 -15 -25 -6 -3 5 1 10
9 10 9 0 16 -2 16 -4z m-188 -18 c-7 -7 -16 -13 -20 -13 -4 -1 -16 -6 -27 -11
-11 -6 -33 -14 -50 -18 -19 -3 -7 5 30 23 66 32 86 38 67 19z m278 2 c0 -5 -4
-10 -10 -10 -5 0 -10 5 -10 10 0 6 5 10 10 10 6 0 10 -4 10 -10z m-1910 -35
c0 -8 -4 -15 -10 -15 -5 0 -7 7 -4 15 4 8 8 15 10 15 2 0 4 -7 4 -15z m1805
-35 c3 -5 -1 -10 -10 -10 -9 0 -13 5 -10 10 3 6 8 10 10 10 2 0 7 -4 10 -10z
m-1780 -50 c0 -27 -4 -40 -14 -40 -8 0 -11 -7 -8 -19 3 -13 -3 -22 -18 -29
-22 -10 -25 -28 -11 -70 5 -15 2 -32 -9 -49 -16 -24 -18 -25 -27 -8 -6 9 -7
35 -4 56 9 56 47 169 56 164 3 -2 13 5 20 16 8 10 15 19 15 19 1 0 1 -18 0
-40z m242 18 c-3 -8 -6 -5 -6 6 -1 11 2 17 5 13 3 -3 4 -12 1 -19z m438 -6
c-3 -3 -11 0 -18 7 -9 10 -8 11 6 5 10 -3 15 -9 12 -12z m-606 -64 c-1 -62 -2
-63 -9 -18 -6 41 -3 80 6 80 2 0 3 -28 3 -62z m1721 28 c0 -2 -13 -6 -29 -8
-17 -2 -28 -1 -25 4 5 8 54 12 54 4z m-1950 -39 c0 -18 9 -50 19 -71 21 -40
18 -66 -5 -66 -11 0 -9 -11 10 -44 13 -24 22 -47 19 -50 -4 -3 -1 -6 5 -6 7 0
12 -4 12 -10 0 -15 -33 2 -53 27 -10 13 -26 23 -36 23 -14 0 -16 7 -13 35 2
19 -1 42 -8 50 -10 12 -10 18 0 30 8 9 10 28 6 50 -5 23 -2 40 6 50 22 25 38
17 38 -18z m919 -15 c-12 -5 -39 17 -39 30 0 5 11 1 24 -9 13 -10 20 -20 15
-21z m-439 -32 c0 -5 -4 -10 -10 -10 -5 0 -10 5 -10 10 0 6 5 10 10 10 6 0 10
-4 10 -10z m810 -12 c10 -6 1 -7 -25 -3 -22 4 -44 11 -50 16 -12 12 53 0 75
-13z m-1055 -8 c3 -5 1 -10 -4 -10 -6 0 -11 5 -11 10 0 6 2 10 4 10 3 0 8 -4
11 -10z m1745 -15 c0 -13 -26 -63 -44 -82 -22 -26 -41 -31 -33 -9 19 49 77
118 77 91z m-1692 -86 c-2 -31 -12 -38 -21 -15 -8 19 3 57 14 50 5 -3 8 -19 7
-35z m464 -69 c27 -19 62 -42 77 -50 14 -8 40 -25 58 -38 17 -12 36 -22 41
-22 5 0 9 -8 8 -17 0 -10 9 -22 22 -28 12 -5 22 -13 22 -17 0 -5 7 -8 15 -8 8
0 15 -5 15 -11 0 -6 6 -9 13 -6 8 3 20 -3 28 -14 8 -11 20 -17 30 -14 16 6 49
-18 49 -35 0 -4 28 -8 62 -9 35 0 64 -5 66 -10 2 -6 10 -7 18 -4 8 3 25 -2 38
-11 23 -14 26 -14 52 7 l29 22 -22 -31 c-39 -54 -50 -59 -142 -60 -60 -1 -91
3 -102 13 -15 12 -111 34 -166 37 -12 0 -25 5 -30 10 -5 5 -2 6 7 1 8 -4 0 7
-18 24 -19 17 -48 39 -65 47 -18 9 -51 34 -73 54 -23 21 -59 49 -80 63 -43 27
-103 87 -88 87 5 0 27 -11 49 -25 41 -25 72 -34 44 -12 -27 21 -50 63 -43 81
4 10 1 16 -7 16 -8 0 -5 6 7 14 17 13 20 13 27 -2 4 -9 31 -33 59 -52z m972
31 c-1 -17 2 -31 6 -31 10 0 21 30 15 40 -3 5 0 12 6 16 8 5 9 3 5 -5 -6 -9 1
-11 27 -6 20 4 37 3 41 -4 4 -5 13 -8 22 -4 21 8 14 -14 -17 -47 -14 -16 -38
-32 -53 -36 -15 -3 -32 -16 -37 -28 -19 -42 -117 -93 -192 -101 -21 -3 -45 -9
-55 -14 -15 -9 -14 -10 8 -11 20 0 22 -2 10 -10 -8 -5 -25 -10 -38 -10 -20 0
-21 3 -12 20 10 19 8 20 -48 20 -34 0 -66 6 -78 14 -29 22 -15 26 41 12 51
-13 141 -14 153 -2 3 4 0 11 -8 16 -8 6 -10 10 -5 10 6 0 3 5 -5 11 -12 8 -8
9 15 5 44 -7 62 7 31 23 -21 12 -27 11 -46 -7 -18 -17 -27 -19 -51 -10 -37 13
-37 24 0 31 16 4 30 14 33 25 4 13 18 22 43 26 35 7 64 -2 38 -11 -13 -5 -19
-33 -7 -33 3 0 21 7 40 16 27 13 34 22 34 45 0 16 5 29 10 29 6 0 20 11 32 25
28 32 43 27 42 -14z m-355 18 c-17 -11 -39 -12 -39 -1 0 4 12 8 27 9 19 1 22
-1 12 -8z m-1159 -70 c26 -50 19 -61 -14 -23 -26 30 -31 45 -19 57 10 11 11 9
33 -34z m1297 35 c-3 -3 -12 -4 -19 -1 -8 3 -5 6 6 6 11 1 17 -2 13 -5z m-148
-73 c31 -8 40 -31 12 -31 -12 0 -21 -4 -21 -8 0 -5 -13 -7 -30 -4 -17 2 -30
10 -30 18 0 8 -7 14 -15 14 -8 0 -15 5 -15 10 0 11 61 12 99 1z m41 -65 c0 -3
-4 -8 -10 -11 -5 -3 -10 -1 -10 4 0 6 5 11 10 11 6 0 10 -2 10 -4z m40 -6 c0
-5 -7 -10 -15 -10 -8 0 -15 5 -15 10 0 6 7 10 15 10 8 0 15 -4 15 -10z m-740
-22 c0 -6 7 -20 17 -30 15 -17 15 -18 -5 -18 -12 0 -22 6 -22 14 0 8 -5 16
-12 18 -6 2 -8 10 -4 16 9 15 26 16 26 0z m-180 -18 c13 -8 13 -10 -2 -10 -9
0 -20 5 -23 10 -8 13 5 13 25 0z m-20 -35 c0 -8 -4 -15 -10 -15 -5 0 -10 7
-10 15 0 8 5 15 10 15 6 0 10 -7 10 -15z m65 -15 c3 -6 -1 -7 -9 -4 -18 7 -21
14 -7 14 6 0 13 -4 16 -10z m195 0 c0 -5 -2 -10 -4 -10 -3 0 -8 5 -11 10 -3 6
-1 10 4 10 6 0 11 -4 11 -10z"/>
<path d="M490 1690 c0 -5 5 -10 10 -10 6 0 10 5 10 10 0 6 -4 10 -10 10 -5 0
-10 -4 -10 -10z"/>
<path d="M1967 1689 c-9 -6 -15 -14 -12 -20 9 -14 35 -11 35 5 0 8 6 17 13 19
8 4 7 6 -3 6 -8 0 -23 -4 -33 -10z"/>
<path d="M1835 1660 c-3 -5 -3 -10 2 -11 52 -5 73 -2 73 9 0 15 -66 17 -75 2z"/>
<path d="M2275 1660 c-3 -5 -1 -10 4 -10 6 0 11 5 11 10 0 6 -2 10 -4 10 -3 0
-8 -4 -11 -10z"/>
<path d="M2128 1653 c7 -3 16 -2 19 1 4 3 -2 6 -13 5 -11 0 -14 -3 -6 -6z"/>
<path d="M637 1511 c-4 -17 -3 -21 5 -13 5 5 8 16 6 23 -3 8 -7 3 -11 -10z"/>
<path d="M1594 575 c-17 -13 -17 -14 -1 -15 9 0 17 4 17 9 0 5 8 12 18 14 13
4 14 5 1 6 -8 0 -24 -6 -35 -14z"/>
<path d="M550 410 c0 -5 5 -10 10 -10 6 0 10 5 10 10 0 6 -4 10 -10 10 -5 0
-10 -4 -10 -10z"/>
<path d="M845 280 c3 -5 11 -10 16 -10 6 0 7 5 4 10 -3 6 -11 10 -16 10 -6 0
-7 -4 -4 -10z"/>
<path d="M900 236 c0 -2 7 -7 16 -10 8 -3 12 -2 9 4 -6 10 -25 14 -25 6z"/>
</g>
</svg>
